HIERARCHY
ROOT SpineBase
{
  OFFSET 0.000000 0.000000 0.000000
  CHANNELS 6 Xposition Yposition Zposition Zrotation Xrotation Yrotation
  JOINT SpineMid
  {
    OFFSET 0.000000 34.293229 0.000000
    CHANNELS 3 Zrotation Xrotation Yrotation
    JOINT SpineShoulder
    {
      OFFSET -0.377635 25.523442 -0.839444
      CHANNELS 3 Zrotation Xrotation Yrotation
      JOINT Neck
      {
        OFFSET -0.272672 8.463209 -0.622120
        CHANNELS 3 Zrotation Xrotation Yrotation
        JOINT Head
        {
          OFFSET -0.331050 11.409932 1.871256
          CHANNELS 3 Zrotation Xrotation Yrotation
          End Site
          {
            OFFSET 0 0 0
          }
        }
      }
      JOINT ShoulderLeft
      {
        OFFSET -14.518706 -6.682327 -8.031071
        CHANNELS 3 Zrotation Xrotation Yrotation
        JOINT ElbowLeft
        {
          OFFSET -6.665927 -28.423351 0.969338
          CHANNELS 3 Zrotation Xrotation Yrotation
          JOINT WristLeft
          {
            OFFSET -7.330338 -21.860691 4.976037
            CHANNELS 3 Zrotation Xrotation Yrotation
            JOINT HandLeft
            {
              OFFSET -0.861893 -6.930540 1.219117
              CHANNELS 3 Zrotation Xrotation Yrotation
              JOINT HandTipLeft
              {
                OFFSET 0.774957 -7.417175 -1.156612
                CHANNELS 3 Zrotation Xrotation Yrotation
                End Site
                {
                  OFFSET 0 0 0
                }
              }
              JOINT ThumbLeft
              {
                OFFSET 2.729433 1.689174 -0.676529
                CHANNELS 3 Zrotation Xrotation Yrotation
                End Site
                {
                  OFFSET 0 0 0
                }
              }
            }
          }
        }
      }
      JOINT ShoulderRight
      {
        OFFSET 13.876370 -4.727689 -3.436470
        CHANNELS 3 Zrotation Xrotation Yrotation
        JOINT ElbowRight
        {
          OFFSET -1.796880 -28.715878 -3.947100
          CHANNELS 3 Zrotation Xrotation Yrotation
          JOINT WristRight
          {
            OFFSET 2.613878 -22.763045 5.190923
            CHANNELS 3 Zrotation Xrotation Yrotation
            JOINT HandRight
            {
              OFFSET 0.475534 3.573018 -4.959770
              CHANNELS 3 Zrotation Xrotation Yrotation
              JOINT HandTipRight
              {
                OFFSET -0.635045 -7.968020 1.308484
                CHANNELS 3 Zrotation Xrotation Yrotation
                End Site
                {
                  OFFSET 0 0 0
                }
              }
              JOINT ThumbRight
              {
                OFFSET -2.134251 2.366809 -4.357978
                CHANNELS 3 Zrotation Xrotation Yrotation
                End Site
                {
                  OFFSET 0 0 0
                }
              }
            }
          }
        }
      }
    }
  }
  JOINT HipLeft
  {
    OFFSET -7.361783 1.676185 -4.340313
    CHANNELS 3 Zrotation Xrotation Yrotation
    JOINT KneeLeft
    {
      OFFSET 2.852372 -38.493164 -2.038413
      CHANNELS 3 Zrotation Xrotation Yrotation
      JOINT AnkleLeft
      {
        OFFSET -1.229739 -29.536433 -2.683714
        CHANNELS 3 Zrotation Xrotation Yrotation
        JOINT FootLeft
        {
          OFFSET 0.589015 -3.040775 -12.635492
          CHANNELS 3 Zrotation Xrotation Yrotation
          End Site
          {
            OFFSET 0 0 0
          }
        }
      }
    }
  }
  JOINT HipRight
  {
    OFFSET 4.505439 1.578113 -2.293418
    CHANNELS 3 Zrotation Xrotation Yrotation
    JOINT KneeRight
    {
      OFFSET 4.802820 -38.151289 -1.794086
      CHANNELS 3 Zrotation Xrotation Yrotation
      JOINT AnkleRight
      {
        OFFSET 1.926037 -28.939133 -1.656087
        CHANNELS 3 Zrotation Xrotation Yrotation
        JOINT FootRight
        {
          OFFSET 0.386438 -2.866879 -13.094043
          CHANNELS 3 Zrotation Xrotation Yrotation
          End Site
          {
            OFFSET 0 0 0
          }
        }
      }
    }
  }
}
MOTION
Frames: 6
Frame Time: 0.033333
99.496009 73.222329 236.991125 -0.209358 0.057606 -12.186462 0.216801 -0.012114 12.186590 -0.000000 0.000000 0.000000 -0.038011 1.851275 0.060407 0.000000 0.000000 0.000000 0.832711 0.547072 -0.104073 4.245310 1.502525 0.534489 -15.763412 6.030747 -3.078718 19.625779 -9.806339 3.276508 0.000000 0.000000 0.000000 0.000000 0.000000 0.000000 -1.782510 1.449738 0.176386 1.778612 -1.454517 -0.131253 19.973895 -22.203592 27.455886 1.631922 11.336869 -21.342498 0.000000 0.000000 0.000000 0.000000 0.000000 0.000000 1.551331 0.854308 12.139953 -2.700658 0.098852 0.106994 -0.897727 -32.227056 -9.438085 0.000000 0.000000 0.000000 1.425805 1.293480 12.232973 -2.722346 0.422303 0.088834 1.719238 -1.584837 -2.259380 0.000000 0.000000 0.000000
99.502690 73.173122 237.081987 -0.246262 0.068791 -12.641824 0.255348 -0.013227 12.642001 -0.000000 0.000000 0.000000 -0.315388 1.879661 0.111150 0.000000 0.000000 0.000000 0.635418 0.513580 -0.101773 4.292413 1.629404 0.461823 -14.238908 5.192465 -2.803864 16.731949 -7.797680 2.791948 0.000000 0.000000 0.000000 0.000000 0.000000 0.000000 -1.896930 1.313673 0.199785 1.892840 -1.319559 -0.156236 15.929141 -18.854234 22.362311 -1.170337 11.101205 -17.686611 0.000000 0.000000 0.000000 0.000000 0.000000 0.000000 1.602700 0.879381 12.594596 -2.912583 0.315013 0.116570 -2.178101 -36.673994 -17.815027 0.000000 0.000000 0.000000 1.377793 1.509351 12.716127 -2.601243 0.192508 0.047295 1.679864 -1.582520 -2.497427 0.000000 0.000000 0.000000
99.435402 73.060768 237.108393 -0.328971 0.098824 -12.463070 0.342546 -0.025498 12.463430 -0.000000 0.000000 0.000000 -0.289780 1.879411 0.106533 0.000000 0.000000 0.000000 -0.000000 0.000000 0.000000 4.774637 2.218162 0.255782 -12.835413 5.122816 -2.570753 12.845098 -5.951337 2.724496 0.000000 0.000000 0.000000 0.000000 0.000000 0.000000 -0.000000 0.000000 0.000000 -0.000000 0.000000 0.000000 14.727444 -19.761612 20.829870 -4.808888 14.404502 -16.128801 0.000000 0.000000 0.000000 0.000000 0.000000 0.000000 1.707800 0.956657 12.419801 -3.070497 0.340357 0.115835 -0.798904 -31.584478 -19.029529 0.000000 0.000000 0.000000 1.360559 1.742070 12.572891 -2.325144 -0.393021 -0.030417 1.300157 -1.219544 -1.747378 0.000000 0.000000 0.000000
99.322071 72.906202 237.114732 -0.442742 0.149681 -12.016327 0.464203 -0.054223 12.017125 -0.000000 0.000000 0.000000 -0.091499 1.996132 0.074311 0.000000 0.000000 0.000000 0.558681 0.599776 -0.124698 4.019972 1.661361 0.369131 -10.404798 3.781615 -2.082060 8.181622 -2.901731 2.189352 0.000000 0.000000 0.000000 0.000000 0.000000 0.000000 2.201880 -0.914175 -0.228445 -2.205782 0.904715 0.263431 14.183293 -19.898353 20.137684 -5.869059 14.523605 -15.359153 0.000000 0.000000 0.000000 0.000000 0.000000 0.000000 1.895206 1.049975 11.976401 -3.167438 0.200321 0.108016 -0.000368 -28.447579 -19.928534 0.000000 0.000000 0.000000 1.654773 1.995997 12.143061 -2.706613 -0.988867 -0.082752 1.111406 -0.763064 -0.106961 0.000000 0.000000 0.000000
99.192694 72.744565 237.099839 -0.546916 0.198680 -11.483330 0.575523 -0.085814 11.484710 -0.000000 0.000000 0.000000 0.188187 2.105889 0.026704 0.000000 0.000000 0.000000 0.653247 0.706014 -0.147553 3.752357 1.484530 0.386606 -8.539701 3.361795 -1.737702 5.107514 -2.189461 1.866576 0.000000 0.000000 0.000000 0.000000 0.000000 0.000000 3.948064 -1.554459 -0.393615 -3.960050 1.523622 0.499874 14.546102 -20.032598 20.600644 -5.298839 13.977216 -15.717574 0.000000 0.000000 0.000000 0.000000 0.000000 0.000000 2.182448 1.132475 11.438621 -3.361785 -0.007191 0.109738 0.473454 -26.582606 -21.341871 0.000000 0.000000 0.000000 1.846612 1.964448 11.606880 -2.521920 -1.063660 -0.094410 0.864393 -0.687028 -0.089996 0.000000 0.000000 0.000000
99.059022 72.591204 237.060623 -0.638028 0.235112 -10.822104 0.670826 -0.111122 10.824064 -0.000000 0.000000 0.000000 0.551924 2.242100 -0.036136 0.000000 0.000000 0.000000 0.759231 0.818694 -0.171846 3.604302 1.149368 0.491974 -6.523206 3.092028 -1.407489 2.392956 -2.003439 1.398213 0.000000 0.000000 0.000000 0.000000 0.000000 0.000000 4.911059 -1.804428 -0.487510 -4.928551 1.755982 0.640473 16.282983 -21.374632 22.807211 -2.953058 12.830618 -17.332206 0.000000 0.000000 0.000000 0.000000 0.000000 0.000000 2.490628 1.212421 10.769850 -3.665334 -0.131058 0.117605 0.772718 -25.751764 -21.606458 0.000000 0.000000 0.000000 1.740324 1.831502 10.956089 -1.419791 -1.703535 -0.169193 -0.000000 0.000000 0.000000 0.000000 0.000000 0.000000
